<svg width="400" height="196" viewBox="0 0 400 196" fill="none" xmlns="http://www.w3.org/2000/svg">
<path d="M21.8282 87.7519C18.7316 87.7519 15.9446 87.1318 13.3125 86.0465C10.6803 84.9613 8.35789 83.4109 6.49992 81.5504C4.48712 79.6899 3.09364 77.5194 1.85499 74.8837C0.771179 72.4031 0.151855 69.6124 0.151855 66.6667C0.151855 63.7209 0.771179 60.9302 1.85499 58.4496C2.93881 55.969 4.48712 53.6434 6.49992 51.783C8.51272 49.9225 10.6803 48.3721 13.3125 47.2868C15.9446 46.2016 18.7316 45.7365 21.8282 45.7365C24.1506 45.7365 26.3183 46.0465 28.4859 46.6667C30.4987 47.2868 32.5115 48.2171 34.2146 49.3023C35.9178 50.3876 37.4661 51.783 38.7047 53.3333C39.9434 54.8837 41.0272 56.5892 41.8013 58.4496L33.1308 61.8605C32.2018 59.6899 30.6535 57.9845 28.7956 56.7442C26.7828 55.5039 24.6151 54.8837 21.983 54.8837C20.2799 54.8837 18.5767 55.1938 17.0284 55.814C15.4801 56.4341 14.2415 57.2093 13.1576 58.2946C12.0738 59.3799 11.1448 60.6202 10.5255 62.0155C9.9062 63.4109 9.59653 64.9613 9.59653 66.6667C9.59653 68.2171 9.9062 69.7675 10.5255 71.3178C11.1448 72.7132 12.0738 73.9535 13.1576 75.0388C14.2415 76.124 15.6349 76.8992 17.1832 77.5194C18.7316 78.1395 20.2799 78.4496 22.1378 78.4496C24.77 78.4496 27.0924 77.8295 29.1052 76.4341C30.9632 75.0388 32.5115 73.3333 33.4405 71.1628L42.111 74.5737C41.3368 76.4341 40.253 78.1395 39.0144 79.6899C37.7757 81.2403 36.2274 82.6357 34.5243 83.7209C32.8212 84.8062 30.9632 85.7364 28.7956 86.3566C26.4731 87.4419 24.1506 87.7519 21.8282 87.7519Z" fill="#F47575"/>
<path d="M45.3648 34.8838H54.9643V51.783C56.3578 49.9225 58.2158 48.5272 60.2286 47.4419C62.3962 46.3566 64.7186 45.8915 67.3508 45.8915C72.4602 45.8915 76.6406 47.4419 79.4276 50.5427C82.3694 53.6435 83.7628 57.9845 83.7628 63.4109V87.752H74.0085V64.6512C74.0085 61.3954 73.2343 58.9148 71.686 57.0543C70.1377 55.1939 67.8153 54.2636 64.5638 54.2636C63.1703 54.2636 61.9317 54.5737 60.8479 55.0388C59.6092 55.5039 58.6802 56.2791 57.7513 57.2094C56.8223 58.1396 56.2029 59.2249 55.7385 60.6202C55.274 62.0156 54.9643 63.5659 54.9643 65.4264V87.752H45.21V34.8838H45.3648Z" fill="#F47575"/>
<path d="M89.4888 46.0467H99.2431V87.7521H89.4888V46.0467Z" fill="#F47575"/>
<path d="M125.102 87.7519C122.005 87.7519 119.219 87.1318 116.586 86.0465C113.954 84.9613 111.632 83.4109 109.774 81.5504C107.761 79.6899 106.368 77.5194 105.129 74.8837C104.045 72.4031 103.426 69.6124 103.426 66.6667C103.426 63.7209 104.045 60.9302 105.129 58.4496C106.213 55.969 107.761 53.6434 109.774 51.783C111.787 49.9225 113.954 48.3721 116.586 47.2868C119.219 46.2016 122.005 45.7365 125.102 45.7365C127.425 45.7365 129.592 46.0465 131.76 46.6667C133.773 47.2868 135.785 48.2171 137.489 49.3023C139.192 50.3876 140.74 51.783 141.979 53.3333C143.217 54.8837 144.301 56.5892 145.075 58.4496L136.25 62.0155C135.321 59.845 133.773 58.1396 131.915 56.8992C129.902 55.6589 127.734 55.0388 125.102 55.0388C123.399 55.0388 121.696 55.3489 120.148 55.969C118.599 56.5892 117.361 57.3644 116.277 58.4496C115.193 59.5349 114.264 60.7752 113.645 62.1706C113.025 63.5659 112.716 65.1163 112.716 66.8217C112.716 68.3721 113.025 69.9225 113.645 71.4729C114.264 72.8682 115.193 74.1085 116.277 75.1938C117.361 76.2791 118.754 77.0543 120.302 77.6744C121.851 78.2946 123.399 78.6047 125.257 78.6047C127.889 78.6047 130.212 77.9845 132.224 76.5892C134.082 75.1938 135.631 73.4884 136.56 71.3178L145.23 74.7287C144.456 76.5892 143.372 78.2946 142.133 79.845C140.895 81.3954 139.347 82.7907 137.643 83.876C135.94 84.9612 134.082 85.8915 131.915 86.5116C129.747 87.4419 127.425 87.7519 125.102 87.7519Z" fill="#F47575"/>
<path d="M167.525 87.752C165.047 87.752 162.57 87.2869 160.093 86.3567C157.615 85.4264 155.448 84.0311 153.435 82.3256C151.422 80.4652 149.874 78.2946 148.79 75.814C147.551 73.1784 147.087 70.2326 147.087 66.9768C147.087 63.566 147.706 60.6202 148.79 58.1396C150.029 55.5039 151.422 53.3334 153.435 51.628C155.293 49.7675 157.615 48.5272 160.093 47.597C162.57 46.6667 165.202 46.2016 167.679 46.2016C170.466 46.2016 172.944 46.6667 175.266 47.752C177.589 48.6822 179.447 50.0776 180.995 51.783V46.3567H190.594V88.0621H180.995V82.1706C179.447 84.0311 177.589 85.4264 175.111 86.5117C172.789 87.2869 170.312 87.752 167.525 87.752ZM169.073 78.9148C170.931 78.9148 172.479 78.6047 174.027 77.9846C175.576 77.3644 176.814 76.4342 177.898 75.3489C178.982 74.2636 179.911 72.8683 180.53 71.4729C181.15 70.0776 181.459 68.3722 181.459 66.6667C181.459 64.9613 181.15 63.4109 180.53 62.0156C179.911 60.4652 178.982 59.2249 177.898 58.1396C176.814 57.0543 175.576 56.1241 174.027 55.5039C172.479 54.8838 170.776 54.5737 169.073 54.5737C167.37 54.5737 165.667 54.8838 164.118 55.5039C162.57 56.1241 161.177 57.0543 160.093 57.9846C159.009 59.0698 158.08 60.3101 157.461 61.8605C156.841 63.4109 156.532 64.9613 156.532 66.6667C156.532 68.3722 156.841 69.9225 157.461 71.4729C158.08 73.0233 159.009 74.2636 160.093 75.3489C161.177 76.4342 162.57 77.3644 164.118 77.9846C165.667 78.6047 167.37 78.9148 169.073 78.9148Z" fill="#F47575"/>
<path d="M211.807 87.752C207.162 87.752 203.446 86.8218 200.35 85.1164C197.253 83.4109 194.931 80.9303 193.228 77.6745L202.053 73.6435C202.982 75.504 204.375 76.8993 206.079 77.8295C207.782 78.7598 209.794 79.2249 212.117 79.2249C214.439 79.2249 216.297 78.7598 217.381 77.8295C218.62 76.8993 219.084 75.814 219.084 74.4187C219.084 73.6435 218.775 73.1784 218.31 72.7133C217.691 72.2481 217.071 71.9381 216.143 71.4729C215.214 71.1629 214.285 70.8528 213.046 70.6978C211.807 70.5427 210.569 70.2326 209.33 69.9226C207.472 69.6125 205.769 69.1474 204.066 68.6822C202.363 68.2171 200.814 67.4419 199.421 66.6667C198.027 65.7365 196.943 64.6512 196.014 63.2559C195.086 61.8605 194.776 60.1551 194.776 57.9846C194.776 56.4342 195.24 54.8838 196.014 53.3334C196.789 51.783 197.872 50.5427 199.266 49.4574C200.659 48.3722 202.363 47.4419 204.375 46.8218C206.388 46.2016 208.711 45.8916 211.033 45.8916C215.214 45.8916 218.62 46.6667 221.407 48.2171C224.194 49.7675 226.361 51.9381 228.064 54.5737L219.858 58.4497C218.929 57.0543 217.846 55.9691 216.297 55.1939C214.749 54.4187 213.046 53.9536 211.033 53.9536C208.711 53.9536 207.007 54.4187 205.924 55.1939C204.84 56.1241 204.221 57.0543 204.221 58.1396C204.221 59.3799 204.995 60.4652 206.698 60.9303C208.246 61.5505 210.723 62.1706 213.82 62.7908C215.523 63.1009 217.226 63.566 218.929 64.0311C220.633 64.4962 222.181 65.2714 223.729 66.2016C225.278 67.1319 226.361 68.2171 227.135 69.6125C228.064 71.0078 228.529 72.7133 228.529 74.8838C228.529 76.2791 228.219 77.6745 227.6 79.2249C226.981 80.7753 225.897 82.1706 224.503 83.4109C223.11 84.6512 221.407 85.7365 219.239 86.5117C217.381 87.4419 214.749 87.752 211.807 87.752Z" fill="#F47575"/>
<path d="M266.618 87.7519C263.367 87.7519 260.425 87.2868 257.638 86.2016C255.006 85.1163 252.684 83.7209 250.671 81.7054C248.813 79.845 247.264 77.6744 246.181 75.0388C245.097 72.5582 244.632 69.7675 244.632 66.8217C244.632 63.876 245.252 61.0853 246.335 58.6047C247.419 55.969 248.968 53.7985 250.98 51.938C252.993 50.0775 255.161 48.5271 257.793 47.4419C260.425 46.3566 263.212 45.7365 266.309 45.7365C269.405 45.7365 272.192 46.2016 274.824 47.2868C277.456 48.2171 279.779 49.7675 281.637 51.4729C283.495 53.3333 285.043 55.3489 286.127 57.8295C287.211 60.3101 287.675 62.9458 287.675 65.8915V69.3023H253.767C254.387 72.2481 255.935 74.5737 258.103 76.4341C260.27 78.2946 263.212 79.0698 266.618 79.0698C269.25 79.0698 271.728 78.4496 273.741 77.0543C275.753 75.6589 277.302 73.9535 278.231 71.783L286.127 76.2791C284.269 79.6899 281.792 82.3256 278.54 84.4961C275.289 86.6667 271.263 87.7519 266.618 87.7519ZM266.309 54.4186C263.367 54.4186 260.89 55.0388 258.722 56.2791C256.554 57.5194 255.161 59.2248 254.232 61.3954H277.921C277.147 59.0698 275.908 57.3644 273.741 56.124C271.728 55.0388 269.25 54.4186 266.309 54.4186Z" fill="#F47575"/>
<path d="M292.007 46.0467H301.607V51.7831C303 50.0777 304.703 48.6824 306.871 47.5971C309.039 46.5118 311.361 46.0467 314.148 46.0467C319.258 46.0467 323.438 47.5971 326.225 50.6979C329.012 53.7987 330.56 58.1397 330.56 63.5661V87.9072H320.806V64.6514C320.806 61.5506 320.032 59.07 318.483 57.2095C316.935 55.349 314.613 54.4188 311.361 54.4188C308.574 54.4188 306.252 55.349 304.394 57.2095C302.536 59.07 301.607 61.8607 301.607 65.4266V87.7521H292.007V46.0467Z" fill="#F47575"/>
<path d="M-0.000488281 108.682H7.12173V102.326L16.8761 95.6589V108.682H25.3918V117.364H16.8761V133.023C16.8761 134.884 17.0309 136.279 17.1857 137.364C17.3406 138.45 17.8051 139.38 18.4244 140C19.0437 140.62 19.8179 140.93 21.0565 141.24C22.1403 141.395 23.6886 141.55 25.5466 141.55V150.543H24.1531C20.9017 150.543 18.2696 150.233 16.1019 149.612C13.9343 148.992 12.2311 148.062 10.9925 146.667C9.75386 145.271 8.82487 143.566 8.20555 141.24C7.58622 139.07 7.43139 136.279 7.43139 132.868V117.364H-0.000488281V108.682Z" fill="#F47575"/>
<path d="M49.0807 150.542C45.8293 150.542 42.8875 150.077 40.1005 148.992C37.4684 147.907 35.1459 146.511 33.1331 144.496C31.2752 142.635 29.7269 140.465 28.643 137.829C27.5592 135.194 27.0947 132.558 27.0947 129.612C27.0947 126.666 27.7141 123.876 28.7979 121.395C29.8817 118.76 31.43 116.589 33.4428 114.729C35.4556 112.868 37.6232 111.318 40.2553 110.232C42.8875 109.147 45.6744 108.527 48.771 108.527C51.8677 108.527 54.6546 108.992 57.2867 110.077C59.9189 111.008 62.2413 112.558 64.0993 114.263C65.9573 116.124 67.5056 118.139 68.5894 120.62C69.6732 123.101 70.1377 125.736 70.1377 128.682V132.093H36.3846C37.0039 135.039 38.5522 137.364 40.7198 139.225C42.8875 141.085 45.8293 141.86 49.2355 141.86C51.8677 141.86 54.345 141.24 56.3578 139.845C58.3706 138.449 59.9189 136.744 60.8478 134.573L68.7442 139.07C66.8862 142.48 64.409 145.116 61.1575 147.287C57.7512 149.457 53.7256 150.542 49.0807 150.542ZM48.771 117.054C45.8293 117.054 43.352 117.674 41.1843 118.915C39.0167 120.155 37.6232 121.86 36.6942 124.031H60.3834C59.6092 121.705 58.3705 120 56.2029 118.76C54.3449 117.674 51.7128 117.054 48.771 117.054Z" fill="#F47575"/>
<path d="M94.7559 150.542C91.6593 150.542 88.8723 149.922 86.2402 148.837C83.6081 147.752 81.2856 146.201 79.4277 144.341C77.4149 142.48 76.0214 140.31 74.7827 137.674C73.6989 135.194 73.0796 132.403 73.0796 129.457C73.0796 126.511 73.6989 123.721 74.7827 121.24C75.8665 118.76 77.4149 116.434 79.4277 114.573C81.4405 112.713 83.6081 111.163 86.2402 110.077C88.8723 108.992 91.6593 108.527 94.7559 108.527C97.0784 108.527 99.246 108.837 101.414 109.457C103.426 110.077 105.439 111.008 107.142 112.093C108.846 113.178 110.394 114.573 111.632 116.124C112.871 117.674 113.955 119.38 114.729 121.24L106.059 124.806C105.13 122.635 103.581 120.93 101.723 119.69C99.7105 118.449 97.5429 117.829 94.9107 117.829C93.2076 117.829 91.5045 118.139 89.9561 118.76C88.4078 119.38 87.1692 120.155 86.0854 121.24C85.0016 122.325 84.0726 123.566 83.4533 124.961C82.8339 126.356 82.5243 127.907 82.5243 129.612C82.5243 131.163 82.8339 132.713 83.4533 134.263C84.0726 135.659 85.0016 136.899 86.0854 137.984C87.1692 139.07 88.5627 139.845 90.111 140.465C91.6593 141.085 93.2076 141.395 95.0656 141.395C97.6977 141.395 100.02 140.775 102.033 139.38C103.891 137.984 105.439 136.279 106.368 134.108L115.039 137.519C114.265 139.38 113.181 141.085 111.942 142.635C110.703 144.186 109.155 145.581 107.452 146.666C105.749 147.752 103.891 148.682 101.723 149.302C99.4008 150.232 97.2332 150.542 94.7559 150.542Z" fill="#F47575"/>
<path d="M118.444 108.682H128.044V114.418C129.437 112.713 131.14 111.318 133.308 110.232C135.476 109.147 137.798 108.682 140.585 108.682C145.695 108.682 149.875 110.232 152.662 113.333C155.604 116.434 156.997 120.775 156.997 126.201V150.543H147.243V127.287C147.243 124.186 146.469 121.705 144.92 119.845C143.217 117.829 140.895 117.054 137.798 117.054C135.011 117.054 132.689 117.984 130.831 119.845C128.973 121.705 128.044 124.496 128.044 128.062V150.387H118.444V108.682Z" fill="#F47575"/>
<path d="M182.701 150.543C179.759 150.543 176.972 150.077 174.185 148.992C171.553 147.907 169.23 146.356 167.372 144.496C165.36 142.636 163.966 140.31 162.728 137.829C161.644 135.349 161.024 132.558 161.024 129.612C161.024 126.667 161.644 123.876 162.728 121.395C163.811 118.915 165.36 116.589 167.372 114.729C169.385 112.868 171.553 111.318 174.185 110.232C176.817 109.147 179.604 108.682 182.701 108.682C185.797 108.682 188.429 109.147 191.062 110.232C193.694 111.318 196.016 112.868 197.874 114.729C199.887 116.589 201.435 118.915 202.519 121.395C203.603 123.876 204.222 126.667 204.222 129.612C204.222 132.558 203.603 135.194 202.519 137.829C201.435 140.31 199.887 142.636 197.874 144.496C195.861 146.356 193.539 147.907 191.062 148.992C188.584 149.922 185.797 150.543 182.701 150.543ZM182.701 141.395C184.404 141.395 185.952 141.085 187.5 140.465C188.894 139.845 190.287 139.07 191.371 137.984C192.455 136.899 193.384 135.659 194.003 134.263C194.623 132.868 194.932 131.318 194.932 129.612C194.932 127.907 194.623 126.356 194.003 124.961C193.384 123.566 192.455 122.325 191.371 121.24C190.287 120.155 189.049 119.38 187.5 118.76C185.952 118.139 184.404 117.829 182.701 117.829C180.998 117.829 179.449 118.139 177.901 118.76C176.353 119.38 175.114 120.155 174.03 121.24C172.946 122.325 172.172 123.566 171.553 124.961C170.934 126.356 170.624 127.907 170.624 129.612C170.624 131.163 170.934 132.713 171.553 134.263C172.172 135.659 172.946 136.899 174.03 137.984C175.114 139.07 176.353 139.845 177.901 140.465C179.449 141.085 180.998 141.395 182.701 141.395Z" fill="#F47575"/>
<path d="M208.556 97.6743H218.311V150.387H208.556V97.6743Z" fill="#F47575"/>
<path d="M244.014 150.543C241.072 150.543 238.285 150.077 235.499 148.992C232.866 147.907 230.544 146.356 228.686 144.496C226.673 142.636 225.28 140.31 224.041 137.829C222.957 135.349 222.338 132.558 222.338 129.612C222.338 126.667 222.957 123.876 224.041 121.395C225.125 118.915 226.673 116.589 228.686 114.729C230.699 112.868 232.866 111.318 235.499 110.232C238.131 109.147 240.918 108.682 244.014 108.682C246.956 108.682 249.743 109.147 252.375 110.232C255.007 111.318 257.33 112.868 259.188 114.729C261.2 116.589 262.749 118.915 263.833 121.395C264.916 123.876 265.536 126.667 265.536 129.612C265.536 132.558 264.916 135.194 263.833 137.829C262.749 140.31 261.2 142.636 259.188 144.496C257.175 146.356 254.852 147.907 252.375 148.992C249.743 149.922 246.956 150.543 244.014 150.543ZM244.014 141.395C245.717 141.395 247.266 141.085 248.814 140.465C250.207 139.845 251.601 139.07 252.685 137.984C253.769 136.899 254.698 135.659 255.317 134.263C255.936 132.868 256.246 131.318 256.246 129.612C256.246 127.907 255.936 126.356 255.317 124.961C254.698 123.566 253.769 122.325 252.685 121.24C251.601 120.155 250.362 119.38 248.814 118.76C247.266 118.139 245.717 117.829 244.014 117.829C242.311 117.829 240.763 118.139 239.214 118.76C237.666 119.38 236.427 120.155 235.344 121.24C234.26 122.325 233.486 123.566 232.866 124.961C232.247 126.356 231.937 127.907 231.937 129.612C231.937 131.163 232.247 132.713 232.866 134.263C233.486 135.659 234.26 136.899 235.344 137.984C236.427 139.07 237.666 139.845 239.214 140.465C240.763 141.085 242.311 141.395 244.014 141.395Z" fill="#F47575"/>
<path d="M302.849 144.031C301.301 146.046 299.443 147.597 296.966 148.682C294.643 149.767 292.011 150.387 289.224 150.387C286.747 150.387 284.27 149.922 281.792 148.992C279.315 148.062 277.147 146.666 275.135 144.961C273.122 143.101 271.574 140.93 270.49 138.449C269.251 135.814 268.787 132.868 268.787 129.612C268.787 126.201 269.406 123.256 270.49 120.775C271.728 118.139 273.122 115.969 275.135 114.263C276.993 112.403 279.315 111.163 281.792 110.232C284.27 109.302 286.902 108.837 289.379 108.837C292.166 108.837 294.643 109.302 296.966 110.387C299.288 111.473 301.146 112.868 302.695 114.728V108.837H312.294V148.992C312.294 151.938 311.83 154.573 310.901 157.209C309.972 159.69 308.578 162.015 306.875 163.876C305.017 165.736 302.849 167.287 300.217 168.372C297.585 169.457 294.489 170.077 290.927 170.077C288.295 170.077 285.818 169.767 283.496 169.147C281.328 168.527 279.315 167.752 277.612 166.666C275.909 165.581 274.361 164.341 272.967 162.945C271.574 161.55 270.49 159.845 269.561 158.139L278.076 152.868C279.625 155.659 281.328 157.829 283.186 159.07C285.044 160.465 287.676 161.085 291.082 161.085C292.94 161.085 294.489 160.775 296.037 160.155C297.43 159.535 298.824 158.604 299.753 157.519C300.837 156.434 301.611 155.194 302.075 153.643C302.695 152.093 302.849 150.697 302.849 149.147V144.031V144.031ZM290.773 141.705C292.631 141.705 294.179 141.395 295.727 140.775C297.275 140.155 298.514 139.225 299.598 138.139C300.682 137.054 301.611 135.659 302.23 134.263C302.849 132.868 303.159 131.163 303.159 129.457C303.159 127.752 302.849 126.201 302.23 124.806C301.611 123.256 300.682 122.015 299.598 120.93C298.514 119.845 297.275 118.914 295.727 118.294C294.179 117.674 292.476 117.364 290.773 117.364C289.069 117.364 287.366 117.674 285.818 118.294C284.27 118.914 282.876 119.845 281.792 120.775C280.709 121.86 279.78 123.101 279.16 124.651C278.541 126.201 278.231 127.752 278.231 129.457C278.231 131.163 278.541 132.713 279.16 134.263C279.78 135.814 280.709 137.054 281.792 138.139C282.876 139.225 284.27 140.155 285.818 140.775C287.366 141.395 289.069 141.705 290.773 141.705Z" fill="#F47575"/>
<path d="M318.022 108.682H327.777V150.387H318.022V108.682ZM327.312 93.0231H336.292L327.467 105.116H318.642L327.312 93.0231Z" fill="#F47575"/>
<path d="M352.396 150.542C349.919 150.542 347.442 150.077 344.964 149.147C342.487 148.217 340.319 146.822 338.307 145.116C336.294 143.256 334.745 141.085 333.662 138.605C332.423 135.969 331.958 133.023 331.958 129.767C331.958 126.356 332.578 123.411 333.662 120.93C334.9 118.294 336.294 116.124 338.307 114.418C340.165 112.558 342.487 111.318 344.964 110.387C347.442 109.457 350.074 108.992 352.551 108.992C355.338 108.992 357.815 109.457 360.138 110.543C362.46 111.473 364.318 112.868 365.866 114.574V109.147H375.466V150.853H365.866V144.961C364.318 146.822 362.46 148.217 359.983 149.302C357.815 149.922 355.183 150.542 352.396 150.542ZM353.944 141.705C355.802 141.705 357.351 141.395 358.899 140.775C360.447 140.155 361.686 139.225 362.77 138.139C363.854 137.054 364.783 135.659 365.402 134.263C366.021 132.868 366.331 131.163 366.331 129.457C366.331 127.752 366.021 126.201 365.402 124.806C364.783 123.256 363.854 122.015 362.77 120.93C361.686 119.845 360.447 118.915 358.899 118.294C357.351 117.674 355.648 117.364 353.944 117.364C352.241 117.364 350.538 117.674 348.99 118.294C347.442 118.915 346.048 119.845 344.964 120.775C343.88 121.86 342.951 123.101 342.332 124.651C341.713 126.201 341.403 127.752 341.403 129.457C341.403 131.163 341.713 132.713 342.332 134.263C342.951 135.814 343.88 137.054 344.964 138.139C346.048 139.225 347.442 140.155 348.99 140.775C350.538 141.395 352.241 141.705 353.944 141.705Z" fill="#F47575"/>
<path d="M89.4917 40.4652V35.5039L99.246 30.2326V40.4652H89.4917Z" fill="#F47575"/>
<path d="M399 115.504C399 119.38 395.903 122.325 392.032 122.325C388.162 122.325 385.065 119.225 385.065 115.504C385.065 111.783 388.162 108.682 392.032 108.682C395.903 108.682 399 111.628 399 115.504ZM386.768 115.504C386.768 118.605 388.936 120.93 392.032 120.93C394.974 120.93 397.142 118.45 397.142 115.504C397.142 112.403 394.974 110.077 391.878 110.077C388.936 110.077 386.768 112.403 386.768 115.504ZM390.949 119.07H389.4V112.248C390.02 112.093 390.949 112.093 392.032 112.093C393.271 112.093 393.89 112.248 394.355 112.558C394.664 112.868 394.974 113.333 394.974 114.108C394.974 114.884 394.355 115.504 393.581 115.659V115.814C394.2 116.124 394.664 116.589 394.819 117.519C394.974 118.605 395.129 118.915 395.284 119.225H393.581C393.426 118.915 393.271 118.294 393.116 117.519C392.961 116.744 392.652 116.434 391.723 116.434H390.949V119.07ZM390.949 115.194H391.723C392.652 115.194 393.271 114.884 393.271 114.263C393.271 113.643 392.806 113.178 391.878 113.178C391.413 113.178 391.103 113.178 390.949 113.333V115.194Z" fill="#F47575"/>
</svg>
